<?xml version="1.0" encoding="UTF-8"?>
<svg version="1.1" xmlns="http://www.w3.org/2000/svg" width="794" height="1264">
<path d="M0 0 C262.02 0 524.04 0 794 0 C794 417.12 794 834.24 794 1264 C531.98 1264 269.96 1264 0 1264 C0 846.88 0 429.76 0 0 Z " transform="translate(0,0)"/>
<path d="M0 0 C3.73765125 2.10618988 6.83967295 4.4883732 10.0625 7.3125 C26.001336 20.84318303 43.99800357 31.49007958 62 42 C63.12792969 42.65887207 64.25585938 43.31774414 65.41796875 43.99658203 C68.27782188 45.66580756 71.13848006 47.33363395 74 49 C70.56118544 50.14627152 70.19826092 49.92805078 67.0703125 48.48046875 C66.28527344 48.12259277 65.50023437 47.7647168 64.69140625 47.39599609 C63.84449219 46.99719238 62.99757812 46.59838867 62.125 46.1875 C60.80435547 45.57769287 60.80435547 45.57769287 59.45703125 44.95556641 C56.63325799 43.64702509 53.81673049 42.32362258 51 41 C49.14338226 40.13899272 47.28661323 39.27831159 45.4296875 38.41796875 C36.78310602 34.38330899 28.31156069 30.28610622 20.1796875 25.27734375 C17.94473875 23.86667759 17.94473875 23.86667759 15 23 C17.46431318 36.80015378 21.02419641 50.33201885 24.47021484 63.9119873 C26.19517454 70.71047476 27.9147045 77.51030772 29.625 84.3125 C29.81840973 85.08124451 30.01181946 85.84998901 30.21109009 86.64202881 C32.78981083 96.91222459 35.21241194 107.19754158 37.39013672 117.56152344 C38.76933857 124.09227018 40.39117798 130.51790556 42.203125 136.94140625 C43.71716622 142.75265269 44.10282502 148.03614906 44 154 C39.66695924 153.35534798 36.13327935 151.81074878 32.1875 149.9375 C31.02605469 149.38964844 29.86460937 148.84179688 28.66796875 148.27734375 C27.78753906 147.85582031 26.90710938 147.43429687 26 147 C26.01160156 147.95390625 26.02320313 148.9078125 26.03515625 149.890625 C26.10441802 158.85894155 25.95852228 167.80187608 25.63916016 176.76489258 C25.45460312 182.10681097 25.32912563 187.44993007 25.21246338 192.79371643 C25.1014044 197.85551279 24.97517958 202.91629576 24.82335472 207.97705555 C24.59771392 215.51671254 24.42161595 223.05539765 24.30907249 230.59763813 C24.24999756 234.45359247 24.16967168 238.30641252 24.03759766 242.16061401 C22.58372284 258.74935363 22.58372284 258.74935363 27.14013672 273.87548828 C29.67370314 276.18010497 32.18002041 277.96845071 35.11343384 279.72116089 C38.90889454 282.29397476 41.93890996 285.76004951 45.109375 289.046875 C46.53588707 290.48493364 47.96429156 291.9211174 49.39453125 293.35546875 C50.84665884 294.82001048 52.29847965 296.28485644 53.75 297.75 C56.63762195 300.66445977 59.52872223 303.57540668 62.421875 306.484375 C63.06477478 307.13557312 63.70767456 307.78677124 64.37005615 308.45770264 C67.34612101 311.44958891 70.35279119 314.3373252 73.5692749 317.07026672 C78.82756284 321.65070464 83.71944935 326.58708567 88.63867188 331.52514648 C89.6839585 332.57071576 90.72946652 333.61606374 91.775177 334.66120911 C94.59090566 337.47665284 97.40355744 340.29515182 100.2156353 343.11424136 C103.1633139 346.0682045 106.11385666 349.01930407 109.06408691 351.97071838 C114.64030519 357.55003501 120.21397114 363.13189406 125.7867074 368.71468836 C132.13544851 375.07463723 138.48705597 381.43172023 144.83889675 387.78857315 C157.89577265 400.85587954 170.94907407 413.92675123 184 427 C179.88794033 427 177.92514211 424.86336356 174.875 422.375 C174.2675293 421.88789551 173.66005859 421.40079102 173.03417969 420.89892578 C171.01562591 419.27459688 169.00732857 417.63817549 167 416 C166.28811523 415.4225 165.57623047 414.845 164.84277344 414.25 C157.17443576 408.02523457 149.59753781 401.7477631 142.31640625 395.0703125 C139.79432183 392.81617297 137.19435777 390.68723468 134.5625 388.5625 C129.78427379 384.69825236 125.25773982 380.6185129 120.73828125 376.45703125 C118.11839954 374.10623867 115.43447781 371.88749541 112.6875 369.6875 C107.63003134 365.61122355 102.91490655 361.24506037 98.18994141 356.79541016 C94.74908482 353.57260294 91.25037818 350.50513088 87.5625 347.5625 C81.56101474 342.7595362 76.03076423 337.49476717 70.44140625 332.2265625 C67.34226514 329.30825324 64.17924102 326.4803901 60.953125 323.703125 C58.43387724 321.50634095 55.96897004 319.25310381 53.5 317 C50.40268033 314.17422616 47.2959585 311.36781221 44.125 308.625 C39.92538889 304.9784241 35.85993598 301.1910093 31.78442383 297.40722656 C28.83663705 294.67590515 25.86595313 291.98870633 22.8125 289.375 C22.25045364 288.86267319 21.68840729 288.35034637 21.10932922 287.82249451 C18.9975694 285.92912309 18.9975694 285.92912309 16.47575378 284.27186584 C11.64874925 280.48387749 8.9211356 277.43686947 8.11416626 271.34103394 C7.69212486 265.41363909 7.84925486 259.49420882 7.98828125 253.55859375 C8.00446228 251.31375258 8.01626697 249.06887613 8.02397156 246.82398987 C8.05644148 240.89218651 8.14948774 234.96281322 8.25506592 229.03192139 C8.34845081 223.18757553 8.38339727 217.34295458 8.42382812 211.49804688 C8.66259786 181.32863333 9.32572251 151.16237446 10 121 C13.73242188 119.90283203 13.73242188 119.90283203 16.140625 120.77734375 C16.83671875 121.16019531 17.5328125 121.54304687 18.25 121.9375 C18.95640625 122.31777344 19.6628125 122.69804688 20.390625 123.08984375 C20.92171875 123.39019531 21.4528125 123.69054687 22 124 C12.98453617 72.70209368 12.98453617 72.70209368 2.77734375 21.6328125 C-0.3184466 7.16504854 -0.3184466 7.16504854 0 0 Z " fill="#ff40007b" transform="translate(182,630)"/>
<path d="M0 0 C0.33 0 0.66 0 1 0 C1.32713056 9.51565078 0.07604656 18.77329873 -1.125 28.1875 C-1.34848953 29.9713008 -1.57154318 31.75515625 -1.79418945 33.5390625 C-2.27031596 37.34342208 -2.75066819 41.14721851 -3.23388672 44.95068359 C-3.8958049 50.16503211 -4.54675902 55.38069237 -5.19500732 60.59675598 C-5.72562921 64.86029117 -6.26052181 69.12328287 -6.79656982 73.38613892 C-7.05544466 75.4481447 -7.31315126 77.51029751 -7.56964111 79.57260132 C-7.93151905 82.47603575 -8.29902883 85.37870557 -8.66796875 88.28125 C-8.77303238 89.13278152 -8.87809601 89.98431305 -8.98634338 90.86164856 C-9.59926536 95.63169785 -10.43635088 100.27015968 -11.56889343 104.94529724 C-12.30543149 108.45572109 -12.4641475 111.98688297 -12.625 115.5625 C-12.68300781 116.6462793 -12.68300781 116.6462793 -12.7421875 117.75195312 C-12.83485005 119.50095875 -12.91842552 121.25044216 -13 123 C-12.195625 123.144375 -11.39125 123.28875 -10.5625 123.4375 C-8 124 -8 124 -7 125 C-6.78275021 126.98730756 -6.62821318 128.98153112 -6.5 130.9765625 C-6.4175 132.20503906 -6.335 133.43351563 -6.25 134.69921875 C-6.1675 135.99472656 -6.085 137.29023437 -6 138.625 C-5.83568743 141.15900791 -5.66908905 143.69286883 -5.5 146.2265625 C-5.4278125 147.35658691 -5.355625 148.48661133 -5.28125 149.65087891 C-5.08742824 151.9589057 -4.81767306 154.2613835 -4.48632812 156.55371094 C-4.04196094 159.70265029 -3.81794178 162.73834268 -3.71875 165.9140625 C-3.68136719 167.00589844 -3.64398437 168.09773437 -3.60546875 169.22265625 C-3.57066406 170.34542969 -3.53585937 171.46820312 -3.5 172.625 C-3.42968485 174.84643804 -3.35676788 177.06779524 -3.28125 179.2890625 C-3.25095703 180.26568848 -3.22066406 181.24231445 -3.18945312 182.24853516 C-3.03513138 185.30434433 -2.80373054 188.32922223 -2.54321289 191.37670898 C-1.6995137 202.12717724 -1.41662571 212.90916251 -1.02734375 223.68359375 C-0.93928679 226.07203376 -0.85103172 228.46046647 -0.7625885 230.84889221 C-0.57865673 235.83043822 -0.39643474 240.81204266 -0.21557617 245.79370117 C0.01612787 252.17470174 0.25109706 258.55557674 0.48720646 264.93641567 C0.66913929 269.85800327 0.84988229 274.77963396 1.03021049 279.70128059 C1.11648577 282.05479898 1.20300741 284.40830835 1.28978157 286.7618084 C1.41054495 290.04486024 1.5298338 293.32796231 1.64868164 296.61108398 C1.68451355 297.57896851 1.72034546 298.54685303 1.75726318 299.54406738 C1.84638658 302.02919888 1.92418185 304.5144359 2 307 C2.04438705 308.15275421 2.08877411 309.30550842 2.13450623 310.49319458 C1.93767612 314.16153611 0.28339081 315.41617515 -2.3125 317.93359375 C-3.22386719 318.83013672 -4.13523437 319.72667969 -5.07421875 320.65039062 C-6.04930415 321.57961077 -7.02456559 322.50864623 -8 323.4375 C-9.40185547 324.81131836 -9.40185547 324.81131836 -10.83203125 326.21289062 C-15.53511489 330.79428609 -20.33244481 335.22425565 -25.30615234 339.5090332 C-27.59245587 341.52149438 -29.70240449 343.6799094 -31.8125 345.875 C-36.00528364 350.11891515 -40.42264699 353.86418531 -45.078125 357.5859375 C-50.07499725 361.71436939 -54.75848657 366.17959784 -59.49365234 370.60253906 C-61.59683376 372.55369148 -63.73435591 374.46510528 -65.875 376.375 C-70.75432184 380.74737931 -75.53690633 385.21925091 -80.32055664 389.69555664 C-89.45162781 398.2362618 -98.6948727 406.64924473 -108 415 C-108.845625 415.763125 -109.69125 416.52625 -110.5625 417.3125 C-119.02521734 424.94958638 -127.62524621 432.41318529 -136.2890625 439.8203125 C-138.7082138 441.88970698 -141.11938733 443.96777307 -143.5234375 446.0546875 C-150.93176064 452.47343247 -158.48507987 458.65081031 -166.24462891 464.64013672 C-168.0701452 466.05434058 -169.88521835 467.48121888 -171.69921875 468.91015625 C-172.88260575 469.83620176 -174.06619214 470.76199255 -175.25 471.6875 C-175.79922119 472.1220752 -176.34844238 472.55665039 -176.91430664 473.00439453 C-180.77235757 476 -180.77235757 476 -183 476 C-183 475.34 -183 474.68 -183 474 C-182.34 474 -181.68 474 -181 474 C-180.76369873 473.43700195 -180.52739746 472.87400391 -180.28393555 472.29394531 C-178.70192894 469.4674509 -176.77135991 467.56395401 -174.45703125 465.296875 C-173.54759766 464.39839844 -172.63816406 463.49992187 -171.70117188 462.57421875 C-170.73865469 461.63243069 -169.77576181 460.69102645 -168.8125 459.75 C-166.94157487 457.91393683 -165.07304046 456.07543405 -163.20703125 454.234375 C-161.96143433 453.01572754 -161.96143433 453.01572754 -160.69067383 451.77246094 C-158.73914489 449.76161232 -156.95295328 447.76982321 -155.15603638 445.63322449 C-150.31992404 440.09264681 -145.00664287 435.04030805 -139.71988106 429.93713188 C-136.34818642 426.68203665 -132.98698682 423.41611927 -129.6240387 420.1519928 C-128.90944398 419.45893543 -128.19484926 418.76587807 -127.45860016 418.05181897 C-118.27191628 409.13730287 -109.14374314 400.16304806 -100.01569569 391.18855965 C-91.14258581 382.46472233 -82.25117686 373.76203045 -73.29370117 365.12475586 C-66.16007663 358.24593351 -59.07245246 351.32328079 -52.0347566 344.34629864 C-48.31679002 340.66357772 -44.58043782 337.00576259 -40.78749275 333.40017891 C-22.56792272 317.61874028 -22.56792272 317.61874028 -13.99215508 296.28003788 C-14.17881979 292.13822121 -14.73811685 288.15502079 -15.50229073 284.08244896 C-16.36911481 278.71397157 -16.23595105 273.33258275 -16.25952148 267.90673828 C-16.31090552 265.64480344 -16.36840401 263.38299994 -16.43174744 261.12136841 C-16.46252821 259.97250278 -16.49330898 258.82363716 -16.52502251 257.63995743 C-16.55672602 256.4619746 -16.58842953 255.28399178 -16.62109375 254.0703125 C-16.68617066 251.57323753 -16.75103104 249.0761569 -16.81568909 246.57907104 C-16.95065706 241.39412842 -17.08786251 236.20925162 -17.22680664 231.02441406 C-17.40333249 224.43224491 -17.5746799 217.83995339 -17.74441433 211.24760628 C-17.87722379 206.10839838 -18.01252658 200.96925839 -18.14857674 195.83013535 C-18.21264881 193.40086557 -18.27603823 190.97157768 -18.33868217 188.54227066 C-18.62475315 177.50233801 -18.92185337 166.4618445 -19.42211914 155.42919922 C-19.45012572 154.69849276 -19.47813231 153.96778629 -19.50698757 153.21493721 C-19.76961266 147.9887746 -20.73457093 143.07286492 -22 138 C-24.31 137.34 -26.62 136.68 -29 136 C-28.58786331 115.39316539 -22.85768872 94.95430001 -18.27201843 74.97384644 C-16.90231986 69.00467811 -15.56183645 63.03109978 -14.27734375 57.04296875 C-11.26162146 42.99633432 -8.10028171 29.00354998 -4.625 15.0625 C-4.44969757 14.35529816 -4.27439514 13.64809631 -4.09378052 12.91946411 C-3.60076708 10.93609778 -3.10133061 8.95433132 -2.6015625 6.97265625 C-2.31619629 5.84093994 -2.03083008 4.70922363 -1.73681641 3.54321289 C-1 1 -1 1 0 0 Z " fill="#ff40007b" transform="translate(611,607)"/>
<path d="M0 0 C-0.31248995 10.59340917 -2.00417978 20.30256981 -4.44726562 30.58496094 C-5.41388435 34.8083675 -6.2312777 39.06077182 -7.0625 43.3125 C-7.70464813 46.54240926 -8.35147476 49.77136571 -9 53 C-9.25652344 54.27746094 -9.51304687 55.55492187 -9.77734375 56.87109375 C-13.51334501 74.33942399 -24.35346481 83.285479 -38 94 C-39.12793383 94.89541823 -40.25552344 95.79127018 -41.3828125 96.6875 C-48.82522533 102.58743851 -56.34912849 108.37221608 -64 114 C-64.67579102 114.49790039 -65.35158203 114.99580078 -66.04785156 115.50878906 C-68.3195136 117.17815449 -70.59601493 118.84064681 -72.875 120.5 C-73.6390918 121.05751953 -74.40318359 121.61503906 -75.19042969 122.18945312 C-78.78809766 124.78734489 -82.39485465 127.29265124 -86.1953125 129.5859375 C-87.16235107 130.1727832 -87.16235107 130.1727832 -88.14892578 130.77148438 C-89.87900069 131.80286641 -91.62645396 132.80494011 -93.375 133.8046875 C-99.32038257 138.77686757 -98.69105824 148.07783747 -99.4375 155.3125 C-100.28163737 163.08354521 -101.19480718 170.80271167 -102.5625 178.5 C-103.58245432 184.25912941 -104.39288651 189.99501774 -105 195.8125 C-106.62576852 211.3290508 -109.09350949 226.71746858 -111.5871582 242.11450195 C-112.66501802 248.80242734 -113.64233789 255.48821523 -114.5078125 262.20703125 C-116.07780999 274.30598017 -117.79751974 286.34681515 -120.1328125 298.32421875 C-121.05999176 303.19681848 -121.84307335 308.09118651 -122.63793945 312.98681641 C-124.79004793 326.21880685 -127.14880328 339.39920777 -129.6875 352.5625 C-129.91294495 353.7444696 -129.91294495 353.7444696 -130.14294434 354.95031738 C-130.57284859 357.19845888 -131.00981719 359.445104 -131.44921875 361.69140625 C-131.70018311 362.98248291 -131.95114746 364.27355957 -132.2097168 365.60375977 C-132.90225773 368.57995281 -133.76767588 371.2118625 -135 374 C-135.33 374 -135.66 374 -136 374 C-136.16260392 366.02862298 -135.65271752 358.16931583 -135.01171875 350.2265625 C-134.9065737 348.89547515 -134.80166485 347.56436913 -134.69697571 346.23324585 C-134.47672815 343.44434932 -134.25366967 340.65569603 -134.02856445 337.8671875 C-133.74771039 334.38549662 -133.47372768 330.90330808 -133.20180416 327.42090988 C-132.02869484 312.43700035 -130.6850851 297.48763915 -129.03433228 282.54714966 C-128.11741738 274.2295347 -127.35551256 265.91341784 -126.72128296 257.57006836 C-125.71722802 244.48010976 -124.45269245 231.43733725 -122.94418335 218.39657593 C-121.68639818 207.50964163 -120.54946215 196.61417778 -119.48046875 185.70703125 C-119.34689541 184.34817334 -119.21330466 182.98931715 -119.07969666 181.63046265 C-118.54403595 176.1753109 -118.00901666 170.72011646 -117.48666382 165.26367188 C-117.11814544 161.42140891 -116.74309436 157.57982733 -116.3671875 153.73828125 C-116.25896164 152.58656937 -116.15073578 151.43485748 -116.03923035 150.24824524 C-114.0198335 129.79790416 -114.0198335 129.79790416 -106.3046875 122.3671875 C-100.61516341 117.74863265 -94.33172544 113.86292461 -88.22119141 109.82958984 C-72.0909837 99.1476611 -56.31660059 87.61757957 -41.5625 75.09375 C-39 73 -39 73 -36.5625 71.46875 C-27.77119426 65.40987712 -26.2920824 54.60213431 -23.75488281 44.82519531 C-23.02552111 42.09551434 -22.21084221 39.4071641 -21.3671875 36.7109375 C-20.17121103 32.80062126 -19.44155794 29.06233302 -19 25 C-32.27125394 29.68646923 -45.46470352 34.53231605 -58.59255981 39.60437012 C-80.19757122 47.94748931 -101.99808248 55.65332859 -124.15087891 62.43017578 C-125.83759685 62.94995393 -127.51874928 63.48770581 -129.19921875 64.02734375 C-130.52373047 64.44693359 -130.52373047 64.44693359 -131.875 64.875 C-132.57367188 65.09929687 -133.27234375 65.32359375 -133.9921875 65.5546875 C-136.36944342 66.08193881 -138.5727241 66.07611667 -141 66 C-138.22693592 62.48869589 -134.27412239 61.22264907 -130.2578125 59.5859375 C-128.63767379 58.90996369 -127.01755763 58.23393583 -125.39746094 57.55786133 C-124.53987183 57.2031778 -123.68228271 56.84849426 -122.79870605 56.48306274 C-118.21851826 54.58489767 -113.65195268 52.65461747 -109.0859375 50.72265625 C-108.15084351 50.32702988 -107.21574951 49.9314035 -106.25231934 49.52378845 C-79.19524471 38.03931125 -52.83219868 25.12940653 -26.59375 11.8984375 C-25.75249573 11.47425034 -24.91124146 11.05006317 -24.04449463 10.61302185 C-20.32484369 8.72667098 -16.62678477 6.8156948 -12.9765625 4.79785156 C-12.37573853 4.46604889 -11.77491455 4.13424622 -11.15588379 3.79238892 C-9.60318132 2.92652783 -8.05804151 2.04714165 -6.51367188 1.16650391 C-4 0 -4 0 0 0 Z " fill="#ff40007b" transform="translate(561,683)"/>
<path d="M0 0 C1.13006509 3.39019528 0.89480824 4.05144544 -0.23046875 7.3046875 C-0.53186768 8.18125 -0.8332666 9.0578125 -1.14379883 9.9609375 C-1.66043091 11.40339844 -1.66043091 11.40339844 -2.1875 12.875 C-2.73216919 14.41414063 -2.73216919 14.41414063 -3.2878418 15.984375 C-6.74701109 25.59085889 -10.63437087 35.00297347 -14.58424377 44.41584778 C-19.32384428 55.71554164 -23.91422946 67.0746522 -28.5 78.4375 C-28.90957947 79.45203247 -29.31915894 80.46656494 -29.7411499 81.51184082 C-32.49726808 88.3399523 -35.24940129 95.16966355 -38 102 C-38.33247742 102.82518127 -38.66495483 103.65036255 -39.00750732 104.50054932 C-40.73694676 108.79296638 -42.46437509 113.08617788 -44.1875 117.38113403 C-44.90660256 119.17300911 -45.62709822 120.96432494 -46.34765625 122.75561523 C-47.57881993 125.83191175 -48.79451596 128.91356066 -50 132 C-50.39082764 132.9892749 -50.78165527 133.9785498 -51.18432617 134.99780273 C-53.07321248 139.93729261 -54.54463956 144.19837932 -54.4375 149.5625 C-54.43556641 151.04943359 -54.43556641 151.04943359 -54.43359375 152.56640625 C-54.29050781 153.36949219 -54.14742188 154.17257812 -54 155 C-50.64148965 157.2390069 -47.39769974 158.13222048 -43.5625 159.1875 C6.38887018 173.50083025 54.87432216 199.63359979 81.23339844 246.06542969 C91.77444891 265.07574749 96.21716765 285.34060231 96.125 307 C96.12886719 307.93972656 96.13273438 308.87945313 96.13671875 309.84765625 C96.13478516 311.19150391 96.13478516 311.19150391 96.1328125 312.5625 C96.13168457 313.36816406 96.13055664 314.17382812 96.12939453 315.00390625 C96 317 96 317 95 319 C94.34 319 93.68 319 93 319 C92.7666394 317.51173706 92.7666394 317.51173706 92.52856445 315.9934082 C91.93714947 312.24671083 91.32678004 308.50329123 90.71118164 304.76049805 C90.44931649 303.15258508 90.19232502 301.54386932 89.94067383 299.93432617 C88.34332367 289.74367673 86.22197525 280.49318346 82 271 C81.70472412 270.31091553 81.40944824 269.62183105 81.10522461 268.91186523 C75.52188174 256.26251724 67.48142392 245.29437236 58.07421875 235.23046875 C56.17519913 233.18839681 54.40162345 231.08548418 52.625 228.9375 C30.35418114 203.50697686 -9.47430221 183.411963 -42.01953125 176.44140625 C-65.23593327 171.42899858 -65.23593327 171.42899858 -72.3828125 161.57421875 C-73.18332031 160.29998047 -73.18332031 160.29998047 -74 159 C-74.66 158.34 -75.32 157.68 -76 157 C-75.8699443 151.92782761 -73.62770592 147.74333298 -71.44921875 143.26953125 C-70.27038592 140.61000812 -69.30814389 138.02265435 -68.3671875 135.27734375 C-65.33847979 126.83296232 -61.31460083 118.8285692 -57.4375 110.75 C-56.61902125 109.03679471 -55.80090902 107.32341428 -54.9831543 105.60986328 C-53.3767501 102.24501752 -51.76769884 98.88145494 -50.15722656 95.51855469 C-48.38590466 91.81512669 -46.63540202 88.10250481 -44.8984375 84.3828125 C-39.59470029 73.05698133 -33.87682091 61.99768244 -27.91748047 51.00415039 C-24.43941087 44.58585529 -21.02053614 38.14356222 -17.6953125 31.64453125 C-17.33827744 30.94742035 -16.98124237 30.25030945 -16.61338806 29.53207397 C-14.88590888 26.15548672 -13.16577244 22.77537442 -11.4543457 19.390625 C-8.01878649 12.63714287 -4.4212182 6.16505757 0 0 Z " fill="#ff40007b" transform="translate(499,294)"/>
<path d="M0 0 C9.88038838 3.54760402 19.61124221 7.42818241 29.3125 11.4375 C29.92668793 11.69104248 30.54087585 11.94458496 31.17367554 12.20581055 C38.51076818 15.23916312 45.81296179 18.33997593 53.07421875 21.55078125 C69.61131218 28.84024936 86.27225549 35.46782182 103.3125 41.5 C104.23546875 41.82730103 105.1584375 42.15460205 106.109375 42.49182129 C116.24459158 46.07308197 126.42323195 49.48812959 136.67260742 52.72851562 C137.67335045 53.04588684 138.67409348 53.36325806 139.70516205 53.69024658 C142.13646545 54.46114655 144.56807892 55.2310513 147 56 C146.99040504 56.57847529 146.98081009 57.15695059 146.97092438 57.75295544 C146.74140909 71.93034622 146.60309669 86.106285 146.56215668 100.28551006 C146.54023212 107.14331546 146.48919215 113.99843315 146.36572266 120.85522461 C146.24635797 127.48886616 146.21326605 134.11954568 146.2297821 140.7544651 C146.22252009 143.26886487 146.18769037 145.78336065 146.12312317 148.29694176 C145.67400552 166.79281709 149.44717595 177.30006868 162.09306335 190.92586708 C164.68786734 193.74817813 167.02072126 196.72538409 169.375 199.75 C171.80700306 202.86102916 171.80700306 202.86102916 175 205 C183.54015445 198.05041872 190.72496727 189.83391614 197.875 181.5 C200.35093587 178.63626694 202.92508131 176.2363045 206 174 C204.609692 178.72560648 202.60206444 182.80631524 200.0625 187 C199.67280029 187.64791504 199.28310059 188.29583008 198.8815918 188.96337891 C195.57993539 194.31955807 191.85957962 199.24635542 187.89038086 204.12182617 C184.70564724 208.03633584 181.92813598 212.03831753 179.4140625 216.42578125 C178 218 178 218 175.5390625 218.87109375 C173 219 173 219 169.75 216.75 C165.89836963 213.14793531 162.67691604 209.05306253 159.39453125 204.9375 C156.19348349 201.01060291 152.78224658 197.29992186 149.35546875 193.5703125 C146.17481168 190.09954575 143.07322091 186.56587465 140 183 C139.50371094 182.4328125 139.00742187 181.865625 138.49609375 181.28125 C130.40345645 171.87442373 132.79221608 155.36823556 132.58500862 143.48109436 C132.53410984 140.59695592 132.47749972 137.71297929 132.41929626 134.82897949 C132.25460989 126.6397185 132.09679126 118.4503522 131.95043945 110.26074219 C131.86008562 105.22704744 131.76055069 100.19360379 131.65517998 95.16020203 C131.61700697 93.24971653 131.58234293 91.33915752 131.5512867 89.42854309 C131.50775808 86.7652625 131.45257774 84.10245673 131.39477539 81.43945312 C131.37986557 80.26275558 131.37986557 80.26275558 131.36465454 79.06228638 C131.26333741 74.99153801 131.05846646 71.56753683 129 68 C127.34231222 66.75403555 127.34231222 66.75403555 125.28588867 66.078125 C124.13348946 65.63031677 124.13348946 65.63031677 122.95780945 65.17346191 C122.11966202 64.86871948 121.28151459 64.56397705 120.41796875 64.25 C119.54529861 63.91528687 118.67262848 63.58057373 117.77351379 63.23571777 C115.89593192 62.51696544 114.01531856 61.80609279 112.13208008 61.10229492 C107.16987564 59.24470823 102.23284779 57.32224436 97.29296875 55.40625 C96.31069305 55.02682251 95.32841736 54.64739502 94.31637573 54.25646973 C78.44879619 48.1052875 63.03803754 40.98522009 47.765625 33.48828125 C46.97474487 33.10078705 46.18386475 32.71329285 45.36901855 32.3140564 C41.4903224 30.41166666 37.61843413 28.49741189 33.7578125 26.55859375 C26.9549671 23.17230005 20.59940991 20.11605684 13 19 C13.25394531 19.969375 13.50789062 20.93875 13.76953125 21.9375 C17.08882357 34.79065436 20.07436802 47.72196884 21 61 C20.34 61 19.68 61 19 61 C18.60208252 59.77595459 18.20416504 58.55190918 17.79418945 57.29077148 C16.29442169 52.67779701 14.79391909 48.06506183 13.29321289 43.45239258 C12.64816077 41.4693832 12.00329861 39.48631201 11.35864258 37.50317383 C10.42320924 34.62564424 9.48704704 31.74835257 8.55078125 28.87109375 C8.24665314 27.93502289 7.94252502 26.99895203 7.62918091 26.03451538 C6.25084375 21.80049626 4.86194813 17.57124552 3.42724609 13.35595703 C3.1912822 12.66067398 2.9553183 11.96539093 2.71220398 11.2490387 C2.09111046 9.42642893 1.46413583 7.60582618 0.83666992 5.78540039 C0 3 0 3 0 0 Z " fill="#ff40007b" transform="translate(219,685)"/>
<path d="M0 0 C0.495 0.99 0.495 0.99 1 2 C-0.28833008 4.52416992 -0.28833008 4.52416992 -2.26953125 7.73046875 C-2.99709671 8.92602029 -3.7239548 10.12200253 -4.45019531 11.31835938 C-4.83614868 11.94895264 -5.22210205 12.5795459 -5.61975098 13.22924805 C-17.59071872 32.88314883 -26.64726382 52.26848075 -31 75 C-31.1572757 75.8199646 -31.31455139 76.6399292 -31.47659302 77.48474121 C-35.4436076 98.70919815 -36.78597879 120.23211617 -38.125 141.75 C-38.37649736 145.73925594 -38.63152123 149.72826713 -38.88961792 153.71710205 C-39.04802353 156.17092804 -39.20292529 158.62498353 -39.35379028 161.07928467 C-39.42411469 162.17943909 -39.49443909 163.27959351 -39.56689453 164.41308594 C-39.62668488 165.37470642 -39.68647522 166.3363269 -39.74807739 167.3270874 C-39.99447616 169.94139177 -40.43644993 172.43705997 -41 175 C-41.66 174.67 -42.32 174.34 -43 174 C-43.60330991 171.35920449 -44.07690647 168.7903915 -44.48046875 166.1171875 C-44.60834274 165.30957977 -44.73621674 164.50197205 -44.8679657 163.66989136 C-46.10695226 155.67090328 -47.07788144 147.64228974 -48.01977539 139.60394287 C-55.79714513 68.21313852 -55.79714513 68.21313852 -90.0625 6.4375 C-90.701875 5.633125 -91.34125 4.82875 -92 4 C-91.67 3.01 -91.34 2.02 -91 1 C-69.17518599 16.69959373 -55.76985478 37.69261826 -45 62 C-44.731875 61.46375 -44.46375 60.9275 -44.1875 60.375 C-43.33124857 58.66249715 -42.47143312 56.95177468 -41.609375 55.2421875 C-40.44789685 52.90231646 -39.31547089 50.55816188 -38.203125 48.1953125 C-29.08223858 29.04307685 -14.95371668 14.76227507 0 0 Z " fill="#ff40007b" transform="translate(428,474)"/>
<path d="M0 0 C4.30932175 3.95928659 7.30556216 8.22334099 10.375 13.1875 C10.88756348 14.00919678 11.40012695 14.83089355 11.92822266 15.67749023 C81.49011243 128.16740012 81.49011243 128.16740012 78.68994141 152.71850586 C77.06687407 158.08565527 72.02792646 161.75316255 67.40942383 164.59277344 C59.77667594 168.5182243 52.39610919 170.65086648 44 172.3125 C42.79988281 172.56322266 41.59976563 172.81394531 40.36328125 173.07226562 C38.15784748 173.53286294 35.95096834 173.98663893 33.7421875 174.4309082 C32.10815528 174.77002226 30.47925582 175.13942544 28.8671875 175.57104492 C25.9242833 176.24712791 23.00435107 176.05777598 20 176 C23.4308166 172.00267253 27.25557556 170.18876401 31.94140625 168.03125 C33.50979212 167.28781631 35.07815067 166.54432498 36.64648438 165.80078125 C39.1095218 164.64590185 41.57417033 163.49455991 44.03979492 162.34521484 C46.42785745 161.22839054 48.80972779 160.09910947 51.19140625 158.96875 C51.92895645 158.63008911 52.66650665 158.29142822 53.42640686 157.94250488 C58.74683844 155.53587566 58.74683844 155.53587566 62 151 C61.88456332 144.54498706 59.78323362 139.52991921 57.05078125 133.7578125 C56.65047195 132.89125031 56.25016266 132.02468811 55.83772278 131.13186646 C51.83348087 122.51566751 47.663084 113.97866171 43.46002197 105.45809937 C29.9840608 78.10317151 17.58910262 50.6789121 6.81555176 22.14538574 C5.9715709 19.92521457 5.11337994 17.71090592 4.25292969 15.49707031 C3.69716881 14.05277162 3.14150122 12.60843704 2.5859375 11.1640625 C2.32527496 10.50143402 2.06461243 9.83880554 1.79605103 9.15609741 C0.52628195 5.83074868 0 3.62572097 0 0 Z " fill="#ff40007b" transform="translate(261,297)"/>
<path d="M0 0 C4.27392346 1.90745327 8.37910235 4.0968947 12.5 6.3125 C13.70185632 6.94925538 14.90425728 7.58498375 16.10717773 8.21972656 C18.5581727 9.51438138 21.00635564 10.81413753 23.45263672 12.11767578 C27.68277016 14.36789305 31.93906005 16.56673836 36.19580078 18.76611328 C58.14889684 30.12967297 80.40453211 41.81007056 100 57 C96.56345507 58.18654345 94.64915076 57.81781654 91.265625 56.5859375 C90.3159082 56.24401367 89.36619141 55.90208984 88.38769531 55.54980469 C87.35225586 55.16211914 86.31681641 54.77443359 85.25 54.375 C84.15526367 53.9718457 83.06052734 53.56869141 81.93261719 53.15332031 C59.77792878 44.90179764 38.01001134 35.74839384 16.48828125 25.97265625 C15.42174316 25.48941895 14.35520508 25.00618164 13.25634766 24.50830078 C10.97671033 23.45240039 8.71168653 22.3646357 6.45849609 21.25341797 C5.31074707 20.69412598 4.16299805 20.13483398 2.98046875 19.55859375 C1.95203857 19.04482178 0.9236084 18.5310498 -0.13598633 18.00170898 C-4.70118525 16.40499846 -7.8802496 17.76661852 -12.08203125 19.78515625 C-12.83959717 20.14633545 -13.59716309 20.50751465 -14.37768555 20.87963867 C-15.18117432 21.26998291 -15.98466309 21.66032715 -16.8125 22.0625 C-17.66432861 22.47024658 -18.51615723 22.87799316 -19.39379883 23.2980957 C-23.17800775 25.11721621 -26.94821683 26.95763227 -30.6796875 28.8828125 C-39.96230356 33.65850139 -49.44460503 37.92925944 -59 42.125 C-59.67042328 42.42087006 -60.34084656 42.71674011 -61.03158569 43.02157593 C-68.55751212 46.33709733 -76.1244826 49.50722217 -83.8125 52.4296875 C-84.48861328 52.6893631 -85.16472656 52.9490387 -85.86132812 53.21658325 C-88.72645642 54.28656168 -90.91397671 55 -94 55 C-92.48474123 50.88448236 -89.60474069 48.90717442 -86.125 46.5 C-85.50987549 46.06840576 -84.89475098 45.63681152 -84.26098633 45.19213867 C-76.68704803 39.96915082 -68.75344098 35.3389681 -60.82910156 30.67431641 C-57.84246293 28.90676655 -54.86917509 27.11835712 -51.8984375 25.32421875 C-39.3509582 17.74755755 -26.75372354 10.27443668 -13.95117188 3.13476562 C-11.83797493 1.94687735 -11.83797493 1.94687735 -9.359375 0.109375 C-5.92166934 -1.50702965 -3.48642389 -1.1597728 0 0 Z " fill="#ff40007b" transform="translate(383,183)"/>
<path d="M0 0 C-2.277968 2.5012354 -4.58631365 4.03058604 -7.55078125 5.64453125 C-8.92375366 6.4017749 -8.92375366 6.4017749 -10.32446289 7.17431641 C-11.31051514 7.71491699 -12.29656738 8.25551758 -13.3125 8.8125 C-30.32081883 18.29783109 -47.22795348 28.21906193 -62 41 C-62.6089209 41.52529297 -63.2178418 42.05058594 -63.84521484 42.59179688 C-92.88804256 67.95709965 -105.14660636 98.63619925 -111.32421875 136.04296875 C-112 139 -112 139 -114 141 C-116.53202052 137.20196922 -116.28833445 134.14582293 -116.265625 129.74609375 C-116.26753845 128.93060562 -116.2694519 128.11511749 -116.27142334 127.2749176 C-116.27278476 125.5458241 -116.26909132 123.81672037 -116.26074219 122.08764648 C-116.25013823 119.47160087 -116.26058842 116.85625723 -116.2734375 114.24023438 C-116.28100954 105.97389384 -116.27391236 98.01598557 -114 90 C-113.51853516 88.18822266 -113.51853516 88.18822266 -113.02734375 86.33984375 C-103.34200253 56.10352763 -82.21047766 31.56029094 -53.9375 16.95703125 C-42.35551105 11.23608913 -30.47745267 6.17764999 -18.125 2.375 C-17.33609375 2.12741943 -16.5471875 1.87983887 -15.734375 1.62475586 C-10.34810464 0.06276044 -5.60439061 -0.21169666 0 0 Z " fill="#ff40007b" transform="translate(315,479)"/>
<path d="M0 0 C0.33 0 0.66 0 1 0 C1.41181397 9.47841753 0.16836229 18.4079157 -1.5625 27.6875 C-1.83285308 29.17459611 -2.10294883 30.66173901 -2.37280273 32.14892578 C-5.24750351 47.83540152 -8.50924619 63.43985129 -12 79 C-12.21479004 79.9600293 -12.42958008 80.92005859 -12.65087891 81.90917969 C-15.94024916 96.37365902 -20.44916876 110.47134413 -24.92993164 124.60131836 C-25.94084893 127.8121282 -26.92665279 131.02952055 -27.90625 134.25 C-30.21448264 141.76985597 -32.67225657 149.2383848 -35.15405273 156.70239258 C-35.93708891 159.06126161 -36.71367409 161.42219554 -37.49023438 163.78320312 C-40.32771986 172.35354683 -43.35047663 180.73469465 -47 189 C-47.66 189 -48.32 189 -49 189 C-49.82711711 175.07686193 -47.39441749 161.67317853 -45 148 C-44.81276367 146.92218262 -44.62552734 145.84436523 -44.43261719 144.73388672 C-40.61796499 123.10105337 -35.49916816 101.75282395 -29.11328125 80.734375 C-27.99584047 76.98604733 -26.98550629 73.22247235 -26 69.4375 C-21.42136455 52.09362891 -15.50901539 35.18237422 -8.9375 18.5 C-8.62127686 17.68756836 -8.30505371 16.87513672 -7.97924805 16.03808594 C-5.73781231 10.42961017 -3.04642369 5.21309814 0 0 Z " fill="#ff40007b" transform="translate(467,251)"/>
<path d="M0 0 C5.99500997 4.96194855 11.46427037 10.3476624 16.9375 15.875 C17.81212891 16.75414062 18.68675781 17.63328125 19.58789062 18.5390625 C21.72757048 20.6904346 23.86486597 22.84411792 26 25 C21.79088771 25 19.68653954 22.67168861 16.5625 20.125 C15.94938965 19.63410889 15.3362793 19.14321777 14.70458984 18.63745117 C8.73630356 13.83961299 2.85087181 8.9400218 -3 4 C-2.01 2.68 -1.02 1.36 0 0 Z " fill="#ff40007b" transform="translate(340,1032)"/>
<path d="M0 0 C3.82122393 1.42114154 7.22622205 3.19189532 10.73828125 5.2578125 C11.80498047 5.88300781 12.87167969 6.50820313 13.97070312 7.15234375 C15.07349609 7.80332031 16.17628906 8.45429687 17.3125 9.125 C18.43462891 9.78371094 19.55675781 10.44242188 20.71289062 11.12109375 C23.47708656 12.7443237 26.23936632 14.37072154 29 16 C25.41870327 17.19376558 24.88097357 16.77698185 21.578125 15.234375 C20.71703125 14.83863281 19.8559375 14.44289063 18.96875 14.03515625 C18.0715625 13.61105469 17.174375 13.18695312 16.25 12.75 C14.48459281 11.93182152 12.71897163 11.11410462 10.953125 10.296875 C10.11201172 9.90435547 9.27089844 9.51183594 8.40429688 9.10742188 C5.29451276 7.67505177 2.15567752 6.32779874 -1 5 C-0.34 4.67 0.32 4.34 1 4 C0.67 2.68 0.34 1.36 0 0 Z " fill="#ff40007b" transform="translate(227,663)"/>
<path d="M0 0 C0.33 0.66 0.66 1.32 1 2 C-0.40895236 4.61788643 -1.86243091 7.11045672 -3.4375 9.625 C-3.87126953 10.33140625 -4.30503906 11.0378125 -4.75195312 11.765625 C-5.82748132 13.51483568 -6.91283725 15.25799654 -8 17 C-8.74636719 16.76410156 -9.49273437 16.52820313 -10.26171875 16.28515625 C-13.03639072 15.69164284 -13.03639072 15.69164284 -15.01953125 17.43359375 C-15.90705078 18.42552734 -15.90705078 18.42552734 -16.8125 19.4375 C-17.41707031 20.09621094 -18.02164062 20.75492187 -18.64453125 21.43359375 C-19.31548828 22.20896484 -19.31548828 22.20896484 -20 23 C-20 20 -20 20 -18.1640625 17.82348633 C-17.32617188 17.00130615 -16.48828125 16.17912598 -15.625 15.33203125 C-14.72265625 14.43935547 -13.8203125 13.54667969 -12.890625 12.62695312 C-11.9272427 11.68863843 -10.96369892 10.7504895 -10 9.8125 C-9.03577654 8.86332231 -8.07222608 7.91346044 -7.109375 6.96289062 C-4.74613254 4.63509681 -2.37618518 2.31456867 0 0 Z " fill="#ff40007b" transform="translate(428,474)"/>
<path d="M0 0 C0.33 0 0.66 0 1 0 C1 2.97 1 5.94 1 9 C1.99 9.33 2.98 9.66 4 10 C3.54873895 12.89709597 3.08927369 15.79248572 2.625 18.6875 C2.49867188 19.50412109 2.37234375 20.32074219 2.2421875 21.16210938 C1.56391849 25.35042051 0.81597795 29.12328186 -1 33 C-1.33 33 -1.66 33 -2 33 C-2.14841673 25.56473399 -1.69670763 18.27516483 -1 10.875 C-0.90460938 9.823125 -0.80921875 8.77125 -0.7109375 7.6875 C-0.47794718 5.12460652 -0.24090324 2.56215969 0 0 Z " fill="#ff40007b" transform="translate(427,1024)"/>
<path d="M0 0 C-1.66000724 3.82831126 -2.72305869 4.87887556 -6.6171875 6.58203125 C-8.03076775 7.01138974 -9.45045085 7.42106983 -10.875 7.8125 C-11.58269531 8.02841797 -12.29039062 8.24433594 -13.01953125 8.46679688 C-16.75437534 9.56221204 -20.10539335 10.26727693 -24 10 C-20.52940584 6.12244188 -16.15884138 4.70413982 -11.4375 2.75 C-10.56158203 2.37359375 -9.68566406 1.9971875 -8.78320312 1.609375 C-7.94595703 1.25875 -7.10871094 0.908125 -6.24609375 0.546875 C-5.47966553 0.22557617 -4.7132373 -0.09572266 -3.92358398 -0.42675781 C-2 -1 -2 -1 0 0 Z " fill="#ff40007b" transform="translate(444,739)"/>
<path d="M0 0 C0.99 0.33 1.98 0.66 3 1 C2.01 1.66 1.02 2.32 0 3 C0 4.32 0 5.64 0 7 C-2.3359375 9.140625 -2.3359375 9.140625 -5.375 11.25 C-6.37273437 11.95640625 -7.37046875 12.6628125 -8.3984375 13.390625 C-11 15 -11 15 -13 15 C-13 14.34 -13 13.68 -13 13 C-12.34 13 -11.68 13 -11 13 C-10.76539063 12.43796875 -10.53078125 11.8759375 -10.2890625 11.296875 C-8.69337 8.45364109 -6.71075457 6.51901873 -4.375 4.25 C-3.55773437 3.45078125 -2.74046875 2.6515625 -1.8984375 1.828125 C-0.95871094 0.92320313 -0.95871094 0.92320313 0 0 Z " fill="#ff40007b" transform="translate(441,1068)"/>
<path d="M0 0 C4.32504836 1.65863505 7.09418825 4.871041 10.25 8.125 C11.08144531 8.96998047 11.08144531 8.96998047 11.9296875 9.83203125 C13.29104485 11.21686028 14.64614859 12.60783204 16 14 C12.62270847 14 12.16161118 13.62588793 9.64453125 11.59375 C9.02255859 11.09746094 8.40058594 10.60117188 7.75976562 10.08984375 C7.11716797 9.56519531 6.47457031 9.04054688 5.8125 8.5 C4.83120117 7.71302734 4.83120117 7.71302734 3.83007812 6.91015625 C2.2148331 5.61324419 0.60672434 4.30745336 -1 3 C-0.67 2.01 -0.34 1.02 0 0 Z " fill="#ff40007b" transform="translate(350,1043)"/>
<path d="M0 0 C3.99500618 1.3697164 6.80009492 3.25722422 10 6 C9.01 7.485 9.01 7.485 8 9 C3.545 7.02 3.545 7.02 -1 5 C-0.34 4.67 0.32 4.34 1 4 C0.67 2.68 0.34 1.36 0 0 Z " fill="ff40007b" transform="translate(227,663)"/>
<path d="M0 0 C0.66 0.66 1.32 1.32 2 2 C1.34 2 0.68 2 0 2 C0 2.66 0 3.32 0 4 C-1.42951528 5.23004804 -2.86570167 6.45371641 -4.34375 7.625 C-6.25098634 9.15474833 -6.25098634 9.15474833 -8.6875 11.8125 C-11 14 -11 14 -14 14 C-9.38 9.38 -4.76 4.76 0 0 Z " fill="#ff40007b" transform="translate(565,943)"/>
<path d="M0 0 C0.33 0 0.66 0 1 0 C1.66 5.61 2.32 11.22 3 17 C2.34 17 1.68 17 1 17 C-1.20927172 11.02197063 -0.93213141 6.26039609 0 0 Z " fill="#ff40007b" transform="translate(237,729)"/>
<path d="M0 0 C0.33 0.66 0.66 1.32 1 2 C-1.08576691 5.02666491 -3.21103658 7.10304278 -6.1875 9.25 C-6.90292969 9.77078125 -7.61835938 10.2915625 -8.35546875 10.828125 C-8.89816406 11.21484375 -9.44085938 11.6015625 -10 12 C-8.52278578 8.54798361 -6.56205999 6.35038064 -3.875 3.75 C-3.15054687 3.04359375 -2.42609375 2.3371875 -1.6796875 1.609375 C-1.12539063 1.07828125 -0.57109375 0.5471875 0 0 Z " fill="ff40007b" transform="translate(424,859)"/>
<path d="M0 0 C1.15957207 3.47871621 0.77456651 4.34219645 -0.4375 7.6875 C-0.72496094 8.49574219 -1.01242187 9.30398438 -1.30859375 10.13671875 C-1.65083984 11.05904297 -1.65083984 11.05904297 -2 12 C-2.33 12 -2.66 12 -3 12 C-3 8.7 -3 5.4 -3 2 C-2.34 2 -1.68 2 -1 2 C-0.67 1.34 -0.34 0.68 0 0 Z " fill="#ff40007b" transform="translate(428,1045)"/>
<path d="M0 0 C0.33 0.66 0.66 1.32 1 2 C0.22265625 3.7265625 0.22265625 3.7265625 -0.9375 5.625 C-1.618125 6.73875 -2.29875 7.8525 -3 9 C-3.99 8.01 -4.98 7.02 -6 6 C-4.02 4.02 -2.04 2.04 0 0 Z " fill="#ff40007b" transform="translate(428,474)"/>
<path d="M0 0 C0 3.67718093 -0.82184858 5.07076189 -3 8 C-5.6875 9.3125 -5.6875 9.3125 -8 10 C-8 9.34 -8 8.68 -8 8 C-7.34 8 -6.68 8 -6 8 C-5.7525 7.4225 -5.505 6.845 -5.25 6.25 C-3.83316683 3.6997003 -2.12372463 1.98214299 0 0 Z " fill="#ff40007b" transform="translate(436,1073)"/>

</svg>
